<svg width="800" height="800" viewBox="0 0 800 800" fill="none" xmlns="http://www.w3.org/2000/svg">
<g clip-path="url(#clip0_1_2)">
<path fill-rule="evenodd" clip-rule="evenodd" d="M400 100C406.63 100 412.989 102.634 417.678 107.322C422.366 112.011 425 118.37 425 125V375H675C681.63 375 687.989 377.634 692.678 382.322C697.366 387.011 700 393.37 700 400C700 406.63 697.366 412.989 692.678 417.678C687.989 422.366 681.63 425 675 425H425V675C425 681.63 422.366 687.989 417.678 692.678C412.989 697.366 406.63 700 400 700C393.37 700 387.011 697.366 382.322 692.678C377.634 687.989 375 681.63 375 675V425H125C118.37 425 112.011 422.366 107.322 417.678C102.634 412.989 100 406.63 100 400C100 393.37 102.634 387.011 107.322 382.322C112.011 377.634 118.37 375 125 375H375V125C375 118.37 377.634 112.011 382.322 107.322C387.011 102.634 393.37 100 400 100Z" fill="#262626"/>
</g>
<defs>
<clipPath id="clip0_1_2">
<rect width="800" height="800" fill="white"/>
</clipPath>
</defs>
</svg>
