<svg width="800" height="800" viewBox="0 0 800 800" fill="none" xmlns="http://www.w3.org/2000/svg">
<g clip-path="url(#clip0_1_2)">
<path fill-rule="evenodd" clip-rule="evenodd" d="M100 675V350H150V675C150 681.63 152.634 687.989 157.322 692.678C162.011 697.366 168.37 700 175 700H625C631.63 700 637.989 697.366 642.678 692.678C647.366 687.989 650 681.63 650 675V350H700V675C700 694.891 692.098 713.968 678.033 728.033C663.968 742.098 644.891 750 625 750H175C155.109 750 136.032 742.098 121.967 728.033C107.902 713.968 100 694.891 100 675ZM650 125V300L550 200V125C550 118.37 552.634 112.011 557.322 107.322C562.011 102.634 568.37 100 575 100H625C631.63 100 637.989 102.634 642.678 107.322C647.366 112.011 650 118.37 650 125Z" fill="#333333"/>
<path fill-rule="evenodd" clip-rule="evenodd" d="M364.65 75C374.026 65.6264 386.742 60.3607 400 60.3607C413.258 60.3607 425.974 65.6264 435.35 75L767.7 407.3C772.394 411.994 775.032 418.361 775.032 425C775.032 431.639 772.394 438.006 767.7 442.7C763.006 447.394 756.639 450.032 750 450.032C743.361 450.032 736.994 447.394 732.3 442.7L400 110.35L67.7 442.7C63.0057 447.394 56.6388 450.032 50 450.032C43.3612 450.032 36.9943 447.394 32.3 442.7C27.6057 438.006 24.9684 431.639 24.9684 425C24.9684 418.361 27.6057 411.994 32.3 407.3L364.65 75Z" fill="#333333"/>
</g>
<defs>
<clipPath id="clip0_1_2">
<rect width="800" height="800" fill="white"/>
</clipPath>
</defs>
</svg>
