<svg width="800" height="800" viewBox="0 0 800 800" fill="none" xmlns="http://www.w3.org/2000/svg">
<g clip-path="url(#clip0_1_2)">
<path d="M107.3 142.7C104.976 140.376 103.132 137.616 101.874 134.579C100.616 131.542 99.9684 128.287 99.9684 125C99.9684 121.713 100.616 118.458 101.874 115.421C103.132 112.384 104.976 109.624 107.3 107.3C109.624 104.976 112.384 103.132 115.421 101.874C118.458 100.616 121.713 99.9684 125 99.9684C128.287 99.9684 131.542 100.616 134.579 101.874C137.616 103.132 140.376 104.976 142.7 107.3L400 364.65L657.3 107.3C659.624 104.976 662.384 103.132 665.421 101.874C668.458 100.616 671.713 99.9684 675 99.9684C678.287 99.9684 681.542 100.616 684.579 101.874C687.616 103.132 690.376 104.976 692.7 107.3C695.024 109.624 696.868 112.384 698.126 115.421C699.384 118.458 700.032 121.713 700.032 125C700.032 128.287 699.384 131.542 698.126 134.579C696.868 137.616 695.024 140.376 692.7 142.7L435.35 400L692.7 657.3C695.024 659.624 696.868 662.384 698.126 665.421C699.384 668.458 700.032 671.713 700.032 675C700.032 678.287 699.384 681.542 698.126 684.579C696.868 687.616 695.024 690.376 692.7 692.7C690.376 695.024 687.616 696.868 684.579 698.126C681.542 699.384 678.287 700.032 675 700.032C671.713 700.032 668.458 699.384 665.421 698.126C662.384 696.868 659.624 695.024 657.3 692.7L400 435.35L142.7 692.7C140.376 695.024 137.616 696.868 134.579 698.126C131.542 699.384 128.287 700.032 125 700.032C121.713 700.032 118.458 699.384 115.421 698.126C112.384 696.868 109.624 695.024 107.3 692.7C104.976 690.376 103.132 687.616 101.874 684.579C100.616 681.542 99.9684 678.287 99.9684 675C99.9684 671.713 100.616 668.458 101.874 665.421C103.132 662.384 104.976 659.624 107.3 657.3L364.65 400L107.3 142.7Z" fill="#262626"/>
</g>
<defs>
<clipPath id="clip0_1_2">
<rect width="800" height="800" fill="white"/>
</clipPath>
</defs>
</svg>
