<svg width="800" height="800" viewBox="0 0 800 800" fill="none" xmlns="http://www.w3.org/2000/svg">
<g clip-path="url(#clip0_1_2)">
<path d="M275 100C228.587 100 184.075 118.437 151.256 151.256C118.437 184.075 100 228.587 100 275V525C100 571.413 118.437 615.925 151.256 648.744C184.075 681.563 228.587 700 275 700H525C571.413 700 615.925 681.563 648.744 648.744C681.563 615.925 700 571.413 700 525V400C700 393.37 702.634 387.011 707.322 382.322C712.011 377.634 718.37 375 725 375C731.63 375 737.989 377.634 742.678 382.322C747.366 387.011 750 393.37 750 400V525C750 584.674 726.295 641.903 684.099 684.099C641.903 726.295 584.674 750 525 750H275C215.326 750 158.097 726.295 115.901 684.099C73.7053 641.903 50 584.674 50 525V275C50 215.326 73.7053 158.097 115.901 115.901C158.097 73.7053 215.326 50 275 50H400C406.63 50 412.989 52.6339 417.678 57.3223C422.366 62.0107 425 68.3696 425 75C425 81.6304 422.366 87.9893 417.678 92.6777C412.989 97.3661 406.63 100 400 100H275Z" fill="#262626"/>
<path d="M800 150C800 189.782 784.197 227.936 756.066 256.066C727.936 284.196 689.782 300 650 300C610.218 300 572.064 284.196 543.934 256.066C515.804 227.936 500 189.782 500 150C500 110.218 515.804 72.0644 543.934 43.934C572.064 15.8035 610.218 0 650 0C689.782 0 727.936 15.8035 756.066 43.934C784.197 72.0644 800 110.218 800 150Z" fill="#262626"/>
</g>
<defs>
<clipPath id="clip0_1_2">
<rect width="800" height="800" fill="white"/>
</clipPath>
</defs>
</svg>
