<svg width="800" height="800" viewBox="0 0 800 800" fill="none" xmlns="http://www.w3.org/2000/svg">
<g clip-path="url(#clip0_1_2)">
<path d="M225 550C231.63 550 237.989 547.366 242.678 542.678C247.366 537.989 250 531.63 250 525C250 518.37 247.366 512.011 242.678 507.322C237.989 502.634 231.63 500 225 500C218.37 500 212.011 502.634 207.322 507.322C202.634 512.011 200 518.37 200 525C200 531.63 202.634 537.989 207.322 542.678C212.011 547.366 218.37 550 225 550ZM150 525C150 531.63 147.366 537.989 142.678 542.678C137.989 547.366 131.63 550 125 550C118.37 550 112.011 547.366 107.322 542.678C102.634 537.989 100 531.63 100 525C100 518.37 102.634 512.011 107.322 507.322C112.011 502.634 118.37 500 125 500C131.63 500 137.989 502.634 142.678 507.322C147.366 512.011 150 518.37 150 525Z" fill="#262626"/>
<path d="M800 550C800 576.522 789.464 601.957 770.711 620.711C751.957 639.464 726.522 650 700 650H100C73.4784 650 48.043 639.464 29.2893 620.711C10.5357 601.957 0 576.522 0 550V475.5C0 454.6 5.25 434 15.25 415.65L138.85 189.1C145.301 177.268 154.82 167.392 166.408 160.512C177.996 153.631 191.223 150 204.7 150H595.3C608.777 150 622.004 153.631 633.592 160.512C645.18 167.392 654.699 177.268 661.15 189.1L784.75 415.6C794.75 434 800 454.6 800 475.5V550ZM182.75 213L79.6 402.15C86.2 400.7 93 400 100 400H700C707 400 713.8 400.7 720.4 402.1L617.25 213C615.095 209.062 611.92 205.777 608.058 203.49C604.196 201.202 599.789 199.997 595.3 200H204.7C200.203 199.988 195.785 201.189 191.914 203.477C188.042 205.765 184.909 209.055 182.75 213ZM50 500V550C50 563.261 55.2678 575.979 64.6447 585.355C74.0215 594.732 86.7392 600 100 600H700C713.261 600 725.979 594.732 735.355 585.355C744.732 575.979 750 563.261 750 550V500C750 486.739 744.732 474.021 735.355 464.645C725.979 455.268 713.261 450 700 450H100C86.7392 450 74.0215 455.268 64.6447 464.645C55.2678 474.021 50 486.739 50 500Z" fill="#262626"/>
</g>
<defs>
<clipPath id="clip0_1_2">
<rect width="800" height="800" fill="white"/>
</clipPath>
</defs>
</svg>
