<svg width="600" height="100" viewBox="0 0 600 100" fill="none" xmlns="http://www.w3.org/2000/svg">
<path d="M48.875 96.64C43.3283 96.64 38.0803 95.872 33.131 94.336C28.1817 92.7147 24.299 90.7093 21.483 88.32L25.579 81.152C28.3097 83.2 31.8083 84.992 36.075 86.528C40.3417 87.9787 44.8217 88.704 49.515 88.704C55.915 88.704 60.523 87.7227 63.339 85.76C66.155 83.712 67.563 81.024 67.563 77.696C67.563 75.2213 66.7523 73.3013 65.131 71.936C63.595 70.4853 61.547 69.4187 58.987 68.736C56.427 67.968 53.5683 67.328 50.411 66.816C47.2537 66.304 44.0963 65.7067 40.939 65.024C37.867 64.3413 35.051 63.36 32.491 62.08C29.931 60.7147 27.8403 58.88 26.219 56.576C24.683 54.272 23.915 51.2 23.915 47.36C23.915 43.6907 24.939 40.4053 26.987 37.504C29.035 34.6027 32.0217 32.3413 35.947 30.72C39.9577 29.0133 44.8217 28.16 50.539 28.16C54.891 28.16 59.243 28.7573 63.595 29.952C67.947 31.0613 71.531 32.5547 74.347 34.432L70.379 41.728C67.3923 39.68 64.1923 38.2293 60.779 37.376C57.3657 36.4373 53.9523 35.968 50.539 35.968C44.4803 35.968 40.0003 37.0347 37.099 39.168C34.283 41.216 32.875 43.8613 32.875 47.104C32.875 49.664 33.643 51.6693 35.179 53.12C36.8003 54.5707 38.891 55.7227 41.451 56.576C44.0963 57.344 46.955 57.984 50.027 58.496C53.1843 59.008 56.299 59.648 59.371 60.416C62.5283 61.0987 65.387 62.08 67.947 63.36C70.5923 64.5547 72.683 66.304 74.219 68.608C75.8403 70.8267 76.651 73.7707 76.651 77.44C76.651 81.3653 75.5417 84.7787 73.323 87.68C71.1897 90.496 68.0323 92.7147 63.851 94.336C59.755 95.872 54.763 96.64 48.875 96.64ZM132.111 96.64C125.114 96.64 118.97 95.1893 113.679 92.288C108.388 89.3013 104.25 85.248 101.263 80.128C98.2763 74.9227 96.783 68.992 96.783 62.336C96.783 55.68 98.191 49.792 101.007 44.672C103.908 39.552 107.834 35.5413 112.783 32.64C117.818 29.6533 123.45 28.16 129.679 28.16C135.994 28.16 141.583 29.6107 146.447 32.512C151.396 35.328 155.279 39.3387 158.095 44.544C160.911 49.664 162.319 55.5947 162.319 62.336C162.319 62.7627 162.276 63.232 162.191 63.744C162.191 64.1707 162.191 64.64 162.191 65.152H103.695V58.368H157.327L153.743 61.056C153.743 56.192 152.676 51.8827 150.543 48.128C148.495 44.288 145.679 41.3013 142.095 39.168C138.511 37.0347 134.372 35.968 129.679 35.968C125.071 35.968 120.932 37.0347 117.263 39.168C113.594 41.3013 110.735 44.288 108.687 48.128C106.639 51.968 105.615 56.3627 105.615 61.312V62.72C105.615 67.84 106.724 72.3627 108.943 76.288C111.247 80.128 114.404 83.1573 118.415 85.376C122.511 87.5093 127.162 88.576 132.367 88.576C136.463 88.576 140.26 87.8507 143.759 86.4C147.343 84.9493 150.415 82.7307 152.975 79.744L158.095 85.632C155.108 89.216 151.354 91.9467 146.831 93.824C142.394 95.7013 137.487 96.64 132.111 96.64ZM225.361 28.16C230.822 28.16 235.601 29.2267 239.697 31.36C243.878 33.408 247.121 36.5653 249.425 40.832C251.814 45.0987 253.009 50.4747 253.009 56.96V96H243.921V57.856C243.921 50.7733 242.129 45.44 238.545 41.856C235.046 38.1867 230.097 36.352 223.697 36.352C218.918 36.352 214.737 37.3333 211.153 39.296C207.654 41.1733 204.924 43.9467 202.961 47.616C201.084 51.2 200.145 55.552 200.145 60.672V96H191.057V28.8H199.761V47.232L198.353 43.776C200.486 38.912 203.9 35.1147 208.593 32.384C213.286 29.568 218.876 28.16 225.361 28.16ZM329.909 96V81.152L329.525 78.72V53.888C329.525 48.1707 327.904 43.776 324.661 40.704C321.504 37.632 316.768 36.096 310.453 36.096C306.101 36.096 301.962 36.8213 298.037 38.272C294.112 39.7227 290.784 41.6427 288.053 44.032L283.957 37.248C287.37 34.3467 291.466 32.128 296.245 30.592C301.024 28.9707 306.058 28.16 311.349 28.16C320.053 28.16 326.752 30.336 331.445 34.688C336.224 38.9547 338.613 45.4827 338.613 54.272V96H329.909ZM306.741 96.64C301.706 96.64 297.312 95.8293 293.557 94.208C289.888 92.5013 287.072 90.1973 285.109 87.296C283.146 84.3093 282.165 80.896 282.165 77.056C282.165 73.5573 282.976 70.4 284.597 67.584C286.304 64.6827 289.034 62.3787 292.789 60.672C296.629 58.88 301.749 57.984 308.149 57.984H331.317V64.768H308.405C301.92 64.768 297.397 65.92 294.837 68.224C292.362 70.528 291.125 73.3867 291.125 76.8C291.125 80.64 292.618 83.712 295.605 86.016C298.592 88.32 302.773 89.472 308.149 89.472C313.269 89.472 317.664 88.32 321.333 86.016C325.088 83.6267 327.818 80.2133 329.525 75.776L331.573 82.048C329.866 86.4853 326.88 90.0267 322.613 92.672C318.432 95.3173 313.141 96.64 306.741 96.64ZM394.785 96.64C388.47 96.64 383.606 94.9333 380.193 91.52C376.78 88.1067 375.073 83.2853 375.073 77.056V13.952H384.161V76.544C384.161 80.4693 385.142 83.4987 387.105 85.632C389.153 87.7653 392.054 88.832 395.809 88.832C399.82 88.832 403.148 87.68 405.793 85.376L408.993 91.904C407.201 93.5253 405.025 94.72 402.465 95.488C399.99 96.256 397.43 96.64 394.785 96.64ZM363.041 36.352V28.8H404.641V36.352H363.041ZM463.553 96.64C457.836 96.64 452.844 95.5733 448.577 93.44C444.31 91.3067 440.982 88.1067 438.593 83.84C436.289 79.5733 435.137 74.24 435.137 67.84V28.8H444.225V66.816C444.225 73.984 445.974 79.4027 449.473 83.072C453.057 86.656 458.049 88.448 464.449 88.448C469.142 88.448 473.196 87.5093 476.609 85.632C480.108 83.6693 482.753 80.8533 484.545 77.184C486.422 73.5147 487.361 69.12 487.361 64V28.8H496.449V96H487.745V77.568L489.153 80.896C487.02 85.8453 483.692 89.728 479.169 92.544C474.732 95.2747 469.526 96.64 463.553 96.64ZM550.065 96.64C544.518 96.64 539.27 95.872 534.321 94.336C529.372 92.7147 525.489 90.7093 522.673 88.32L526.769 81.152C529.5 83.2 532.998 84.992 537.265 86.528C541.532 87.9787 546.012 88.704 550.705 88.704C557.105 88.704 561.713 87.7227 564.529 85.76C567.345 83.712 568.753 81.024 568.753 77.696C568.753 75.2213 567.942 73.3013 566.321 71.936C564.785 70.4853 562.737 69.4187 560.177 68.736C557.617 67.968 554.758 67.328 551.601 66.816C548.444 66.304 545.286 65.7067 542.129 65.024C539.057 64.3413 536.241 63.36 533.681 62.08C531.121 60.7147 529.03 58.88 527.409 56.576C525.873 54.272 525.105 51.2 525.105 47.36C525.105 43.6907 526.129 40.4053 528.177 37.504C530.225 34.6027 533.212 32.3413 537.137 30.72C541.148 29.0133 546.012 28.16 551.729 28.16C556.081 28.16 560.433 28.7573 564.785 29.952C569.137 31.0613 572.721 32.5547 575.537 34.432L571.569 41.728C568.582 39.68 565.382 38.2293 561.969 37.376C558.556 36.4373 555.142 35.968 551.729 35.968C545.67 35.968 541.19 37.0347 538.289 39.168C535.473 41.216 534.065 43.8613 534.065 47.104C534.065 49.664 534.833 51.6693 536.369 53.12C537.99 54.5707 540.081 55.7227 542.641 56.576C545.286 57.344 548.145 57.984 551.217 58.496C554.374 59.008 557.489 59.648 560.561 60.416C563.718 61.0987 566.577 62.08 569.137 63.36C571.782 64.5547 573.873 66.304 575.409 68.608C577.03 70.8267 577.841 73.7707 577.841 77.44C577.841 81.3653 576.732 84.7787 574.513 87.68C572.38 90.496 569.222 92.7147 565.041 94.336C560.945 95.872 555.953 96.64 550.065 96.64Z" fill="#333333"/>
</svg>
